HIERARCHY
ROOT Hips
{
  OFFSET -125.086 92.215 135.881
  CHANNELS 6 Xposition Yposition Zposition Zrotation Xrotation Yrotation
  JOINT LeftUpLeg
  {
    OFFSET 8.64259 1.95398 -2.38835
    CHANNELS 3 Zrotation Xrotation Yrotation
    JOINT LeftLeg
    {
      OFFSET 43.7702 0 0
      CHANNELS 3 Zrotation Xrotation Yrotation
      JOINT LeftFoot
      {
        OFFSET 40.6238 0 0
        CHANNELS 3 Zrotation Xrotation Yrotation
        JOINT LeftToeBase
        {
          OFFSET 12.7242 0 0
          CHANNELS 3 Zrotation Xrotation Yrotation
          End Site
          {
            OFFSET 0 0 0
          }
        }
      }
    }
  }
  JOINT RightUpLeg
  {
    OFFSET -8.2249 1.95398 -2.59336
    CHANNELS 3 Zrotation Xrotation Yrotation
    JOINT RightLeg
    {
      OFFSET 43.5653 0 0
      CHANNELS 3 Zrotation Xrotation Yrotation
      JOINT RightFoot
      {
        OFFSET 40.6238 0 0
        CHANNELS 3 Zrotation Xrotation Yrotation
        JOINT RightToeBase
        {
          OFFSET 12.7242 0 0
          CHANNELS 3 Zrotation Xrotation Yrotation
          End Site
          {
            OFFSET 0 0 0
          }
        }
      }
    }
  }
  JOINT Spine
  {
    OFFSET 0.165834 0.87714 6.61349
    CHANNELS 3 Zrotation Xrotation Yrotation
    JOINT Spine1
    {
      OFFSET 7.38963 1.71661e-005 0
      CHANNELS 3 Zrotation Xrotation Yrotation
      JOINT Spine2
      {
        OFFSET 11.9445 1.14441e-005 0
        CHANNELS 3 Zrotation Xrotation Yrotation
        JOINT Spine3
        {
          OFFSET 14.7254 4.19617e-005 0
          CHANNELS 3 Zrotation Xrotation Yrotation
          JOINT Spine4
          {
            OFFSET 10.9679 0 0
            CHANNELS 3 Zrotation Xrotation Yrotation
            JOINT RightShoulder
            {
              OFFSET 2.46616 -1.6653 3.69651
              CHANNELS 3 Zrotation Xrotation Yrotation
              JOINT RightArm
              {
                OFFSET 13.0012 0 0
                CHANNELS 3 Zrotation Xrotation Yrotation
                JOINT RightForeArm
                {
                  OFFSET 28.7848 1.52588e-005 0
                  CHANNELS 3 Zrotation Xrotation Yrotation
                  JOINT RightHand
                  {
                    OFFSET 26.5688 1.52588e-005 0
                    CHANNELS 3 Zrotation Xrotation Yrotation
                    End Site
                    {
                      OFFSET 0 0 0
                    }
                  }
                }
              }
            }
            JOINT LeftShoulder
            {
              OFFSET 2.38034 -1.29275 -3.7523
              CHANNELS 3 Zrotation Xrotation Yrotation
              JOINT LeftArm
              {
                OFFSET 16.3182 6.10352e-005 0
                CHANNELS 3 Zrotation Xrotation Yrotation
                JOINT LeftForeArm
                {
                  OFFSET 27.0901 0 0
                  CHANNELS 3 Zrotation Xrotation Yrotation
                  JOINT LeftHand
                  {
                    OFFSET 24.5451 1.52588e-005 0
                    CHANNELS 3 Zrotation Xrotation Yrotation
                    End Site
                    {
                      OFFSET 0 0 0
                    }
                  }
                }
              }
            }
            JOINT Neck
            {
              OFFSET 5.0226 -0.0266342 0
              CHANNELS 3 Zrotation Xrotation Yrotation
              JOINT Head
              {
                OFFSET 6.69363 2.86102e-005 0
                CHANNELS 3 Zrotation Xrotation Yrotation
                End Site
                {
                  OFFSET 0 0 0
                }
              }
            }
          }
        }
      }
    }
  }
}
MOTION
Frames:	6
Frame Time:	0.0416667
-3.06516 9.39766 -56.7682 174.116 -0.262527 174.316 -174.257 6.38259 89.4154 -12.6591 -14.6891 -1.27969 44.8187 -6.8761 -17.3262 21.3646 -0.525531 6.41503 174.362 3.42393 85.0849 -6.94383 13.9377 -0.431584 44.351 5.68444 29.3355 23.3551 1.58072 -4.88083 -0.615011 7.39422 -90.7485 12.075 -1.57614 -1.32037 0.404425 -1.63272 -1.24973 -22.1296 -1.10651 -1.73296 -2.11699 -1.10651 -1.73297 103.796 10.0176 -72.1082 82.1901 2.76771 -4.06684 -27.2279 -80.4748 -27.3576 -1.71884 -0.116662 4.18079 -72.7304 -11.2727 110.742 -82.3439 -7.64374 -8.17302 33.9373 80.9693 -20.7726 -7.76956 0.0735888 -7.85075 34.7464 7.04234 9.80726 -36.352 2.87722 -2.08544 
-3.0329 9.39665 -56.7694 174.15 -0.20904 174.331 -174.193 6.30304 89.427 -12.6549 -14.5075 -1.34064 44.1336 -7.13324 -17.2421 23.3389 -0.524528 6.0555 174.378 3.36057 85.0905 -6.93535 13.7894 -0.465632 44.696 5.60236 29.3393 22.886 1.81923 -5.80905 -0.617293 7.40322 -90.7503 12.0571 -1.58144 -1.32361 0.386465 -1.63816 -1.25274 -22.1476 -1.1106 -1.73765 -2.13499 -1.11059 -1.73765 103.796 10.0034 -72.1184 82.1788 2.89313 -3.89415 -29.5879 -80.1716 -29.6917 -1.31531 -0.0808941 3.69638 -72.7161 -11.2762 110.78 -82.3647 -7.79494 -8.24105 38.8818 82.0942 -25.696 -8.72175 0.113744 -8.05359 34.7677 7.12409 9.70521 -36.4461 2.91813 -1.80089 
-3.01327 9.3744 -56.7756 174.221 -0.23444 174.284 -174.195 6.24422 89.377 -12.5427 -14.6617 -1.3813 44.2406 -7.07241 -17.2062 22.9164 -0.509931 6.04832 174.339 3.4251 85.0311 -6.95694 13.61 -0.446903 44.7324 5.58154 29.1898 22.6119 1.84231 -5.58302 -0.628796 7.40156 -90.7389 12.0605 -1.59898 -1.29898 0.38995 -1.65459 -1.22735 -22.1445 -1.13472 -1.71944 -2.13187 -1.13472 -1.71943 103.801 9.91841 -72.1293 82.1951 2.86857 -4.04164 -30.2008 -80.5993 -30.2601 -1.25995 -0.0780962 3.96919 -72.7037 -11.1908 110.839 -82.3307 -7.60607 -8.08941 35.5484 81.6253 -22.5201 -8.52559 0.112344 -8.14047 35.0454 7.47163 9.12214 -37.2533 3.3204 -1.19773 
-3.01639 9.39337 -56.773 174.2 -0.168723 174.269 -174.23 6.23791 89.3607 -12.6801 -14.7314 -1.34378 44.1715 -7.16477 -17.3233 23.038 -0.542169 6.21782 174.188 3.36472 84.9476 -7.00924 13.4829 -0.297347 44.8587 5.54287 29.202 22.8121 1.84082 -5.84412 -0.630637 7.41059 -90.7386 12.0424 -1.60237 -1.29826 0.371869 -1.65795 -1.22649 -22.1626 -1.13817 -1.71977 -2.14996 -1.13816 -1.71977 103.803 9.92611 -72.1136 82.145 2.73702 -4.03353 -29.6224 -80.4364 -29.7567 -1.224 -0.0740204 3.78765 -72.6973 -11.2055 110.852 -82.3906 -7.83805 -8.12871 41.5442 82.8673 -28.416 -8.04127 0.0929173 -8.07344 35.3005 7.70118 8.76872 -37.9535 3.54553 -0.729285 
-3.00349 9.41221 -56.7706 174.329 -0.381832 174.1 -174.314 6.18781 89.1897 -12.2231 -14.7869 -1.42077 43.8249 -7.18656 -17.3226 23.5176 -0.610976 6.54927 174.258 3.60337 84.8519 -6.98576 13.335 -0.435361 44.6381 5.60067 29.1298 23.4383 1.7552 -6.16089 -0.606776 7.38414 -90.7211 12.0958 -1.54692 -1.26847 0.425295 -1.60124 -1.19917 -22.1091 -1.09423 -1.67469 -2.09646 -1.09423 -1.67469 103.791 9.99256 -72.1519 82.1839 2.96247 -3.76838 -31.5957 -80.2472 -31.7885 -1.17543 -0.0796753 4.14976 -72.7276 -11.2174 110.766 -82.3348 -7.68897 -8.12872 38.7218 82.4515 -25.6716 -8.90246 0.138846 -8.38889 35.1863 7.64977 8.79531 -37.8199 3.45984 -0.620279 
-3.03858 9.37947 -56.7815 174.276 -0.218109 174.262 -174.216 6.28105 89.3733 -12.6485 -14.9681 -1.36977 44.0794 -7.16795 -17.466 22.953 -0.534859 6.18921 174.307 3.4207 84.9967 -6.9665 13.6021 -0.428465 44.7345 5.58335 29.3733 22.5537 1.89002 -5.8037 -0.614484 7.40481 -90.7392 12.054 -1.57062 -1.3027 0.383489 -1.62643 -1.23231 -22.1507 -1.10656 -1.71445 -2.13809 -1.10655 -1.71445 103.797 9.96769 -72.1275 82.2466 3.04003 -3.90187 -31.4269 -80.4371 -31.4406 -1.26906 -0.0816059 3.80763 -72.7047 -11.2516 110.818 -82.3358 -7.56911 -8.19171 34.2736 81.3291 -21.1942 -8.13625 0.0905641 -7.96755 35.2177 7.71045 8.80686 -37.8964 3.53012 -0.684491 
